<svg xmlns="http://www.w3.org/2000/svg" xmlns:xlink="http://www.w3.org/1999/xlink" version="1.1" x="0px" y="0px" viewBox="0 0 64 80" style="enable-background:new 0 0 64 64;" xml:space="preserve"><path d="M32,1C14.907,1,1,14.907,1,32s13.907,31,31,31s31-13.907,31-31S49.093,1,32,1z M30.188,7.073  c0.351,0.596,0.61,1.25,0.73,1.952C18.736,9.593,9,19.681,9,32c0,12.992,9.991,18.788,15.946,21.086  c1.916,0.739,3.494,2.094,4.56,3.785C16.754,55.628,7,45.024,7,32C7,18.825,17.246,8.005,30.188,7.073z M50.371,15.043l2.816-2.816  c2.126,2.276,3.888,4.894,5.198,7.761l-3.679,1.524C53.613,19.139,52.144,16.962,50.371,15.043z M48.956,13.63  c-1.89-1.741-4.056-3.217-6.471-4.331l1.526-3.683c2.867,1.31,5.485,3.072,7.761,5.198L48.956,13.63z M40.804,10.745  C49.428,14.321,55,22.664,55,32c0,8.675-4.935,16.624-12.636,20.521C40.374,49.22,36.764,47,32.636,47  c-0.061,0-0.122,0.01-0.183,0.011C31.516,45.938,31,44.583,31,43.146V43h3c3.86,0,7-3.14,7-7v-2.382l2-1V25c1.103,0,2-0.897,2-2  c0-5.514-4.486-10-10-10h-2v-2v-1c0-1.056-0.219-2.065-0.605-2.99C35.234,7.053,38,7.565,40.637,8.536l-0.756,1.826L40.804,10.745z   M30,23c-1.654,0-3,1.346-3,3v6c0,4.962-4.038,9-9,9l-1,0.001V28c0-7.168,5.832-13,13-13h5c4.411,0,8,3.589,8,8H30z M31,13h-1  c-1.027,0-2.03,0.105-3,0.302v-1.676c1.292-0.317,2.628-0.511,4-0.576V13z M25,13.875C19.184,15.941,15,21.484,15,28v13  c0,1.103,0.897,2,2,2v3.017c-3.437-3.174-6-7.667-6-14.017c0-9.122,5.857-16.883,14-19.775V13.875z M19,42.949  C24.598,42.442,29,37.728,29,32v-6c0-0.551,0.449-1,1-1h11v6.382l-2,1V36c0,2.757-2.243,5-5,5h-5v2.146  c0,1.32,0.322,2.59,0.929,3.722C28.076,45.68,25.882,45,23.554,45c-1.56,0-3.114,0.333-4.554,0.934V42.949z M25.667,51.22  c-2.06-0.795-4.24-1.863-6.272-3.283C20.692,47.33,22.121,47,23.554,47c4.514,0,8.43,3.058,9.524,7.437l1.609,6.434  c-0.574,0.053-1.154,0.086-1.737,0.105C32.561,56.633,29.736,52.791,25.667,51.22z M35.019,53.951  c-0.471-1.883-1.381-3.557-2.596-4.939C32.494,49.011,32.565,49,32.636,49C37.799,49,42,53.201,42,58.364v0.858  c-1.702,0.627-3.481,1.095-5.315,1.394L35.019,53.951z M43.242,54.317c2.103-1.062,4.015-2.399,5.701-3.96l2.83,2.83  c-2.279,2.129-4.901,3.892-7.773,5.203v-0.026C44,56.937,43.724,55.577,43.242,54.317z M50.355,48.941  c1.767-1.92,3.235-4.096,4.331-6.462l3.7,1.533c-1.31,2.867-3.072,5.485-5.198,7.761L50.355,48.941z M55.45,40.631  c0.893-2.417,1.407-4.988,1.514-7.631h4.011c-0.11,3.214-0.741,6.297-1.818,9.166L55.45,40.631z M56.964,31  c-0.105-2.655-0.613-5.227-1.497-7.638l3.689-1.528c1.077,2.869,1.709,5.952,1.818,9.166H56.964z M42.166,4.844l-0.764,1.845  C38.399,5.572,35.242,5,32,5c-0.272,0-0.541,0.013-0.811,0.021c-0.624-0.749-1.383-1.384-2.247-1.858C29.947,3.057,30.967,3,32,3  C35.576,3,39.001,3.655,42.166,4.844z M3,32C3,18.675,12.036,7.428,24.301,4.045l1.621,0.203c0.953,0.119,1.829,0.469,2.575,0.987  C15.259,6.958,5,18.3,5,32c0,14.467,11.144,26.17,25.495,26.95c0.219,0.651,0.368,1.328,0.443,2.023C15.438,60.411,3,47.635,3,32z"/><text x="0" y="79" fill="#000000" font-size="5px" font-weight="bold" font-family="'Helvetica Neue', Helvetica, Arial-Unicode, Arial, Sans-serif">Created by Eucalyp</text><text x="0" y="84" fill="#000000" font-size="5px" font-weight="bold" font-family="'Helvetica Neue', Helvetica, Arial-Unicode, Arial, Sans-serif">from the Noun Project</text></svg>