<svg xmlns="http://www.w3.org/2000/svg" xmlns:xlink="http://www.w3.org/1999/xlink" version="1.1" x="0px" y="0px" viewBox="-200.0 -400.0 4400.0 5400.0" style="enable-background:new 0 0 4000 4000;" xml:space="preserve"><g><path d="M2486.644,1688.168c32.486-10.598,66.814-16.185,101.952-16.185c35.268,0,69.722,5.635,102.319,16.312   c0.599,0.176,1.181,0.386,1.761,0.604c25.478,8.507,49.807,20.093,72.473,34.509l-0.72-106.745c-0.005-0.354,0-0.71,0.015-1.064   c0.703-20.566,1.061-41.483,1.061-62.173V963.528c0-6.565-3.527-10.379-5.626-12.069c-1.936-1.555-6.021-3.986-11.64-2.747   c-73.407,16.155-150.232,24.346-228.338,24.346c-126.16,0-250.235-21.789-358.82-63.006   c-106.345-40.37-195.936-98.463-259.09-168.001c-3.019-3.327-6.951-5.16-11.073-5.16c0,0,0,0-0.003,0   c-4.119,0-8.051,1.833-11.073,5.157c-63.154,69.541-152.745,127.635-259.093,168.004   c-108.585,41.217-232.665,63.006-358.823,63.006c-78.103,0-154.926-8.191-228.335-24.346c-5.612-1.231-9.703,1.191-11.638,2.747   c-2.103,1.691-5.63,5.507-5.63,12.069v589.895c0,414.845,143.01,818.918,402.685,1137.785l460.594,565.581   c2.578,1.961,10.567,5.012,16.854,6.409c30.934,6.846,70.421,10.068,89.382,5.681c-12.674-24.924-19.716-53.059-19.716-82.479   v-411.845V2506.52c0-99.482,28.465-195.899,82.32-278.824l261.91-403.294c41.943-64.582,103.143-111.52,173.107-135.142   C2484.486,1688.824,2485.554,1688.472,2486.644,1688.168z M1774.868,1444.939h-152.622v73.09c0,14.323-11.608,25.932-25.93,25.932   c-14.324,0-25.934-11.61-25.934-25.932v-73.09h-180.891v182.665h299.937c14.322,0,25.932,11.609,25.932,25.932   c0,14.323-11.61,25.932-25.932,25.932h-299.937v228.794c0,14.323-11.609,25.933-25.933,25.933s-25.933-11.61-25.933-25.933   v-228.794h-86.937c-14.323,0-25.931-11.609-25.931-25.932c0-14.323,11.608-25.932,25.931-25.932h86.937v-182.665h-86.937   c-14.323,0-25.931-11.609-25.931-25.932c0-14.322,11.608-25.933,25.931-25.933h86.937v-146.057   c0-14.323,11.609-25.933,25.933-25.933s25.933,11.61,25.933,25.933v146.057h180.891v-146.057c0-14.323,11.61-25.933,25.934-25.933   c14.322,0,25.93,11.61,25.93,25.933v146.057h152.622c14.321,0,25.934,11.611,25.934,25.933   C1800.803,1433.33,1789.19,1444.939,1774.868,1444.939z"/><path d="M2709.507,1751.685v728.902h405.849c23.833,0,41.997-21.281,38.376-44.835c-9.839-64.006-33.004-125.178-68.482-179.806   l-261.912-403.294C2794.522,1808.281,2754.987,1773.777,2709.507,1751.685z"/><path d="M3120.4,2800.487h-410.893v596.398c0,17.516,17.242,29.824,33.808,24.134l331.072-113.715   c50.729-17.425,84.813-66.01,84.813-120.903v-347.112C3159.2,2817.859,3141.83,2800.487,3120.4,2800.487z"/><path d="M3120.4,2532.452h-436.825c-14.324,0-25.935-11.611-25.935-25.933v-773.93c-22.293-5.745-45.455-8.74-69.044-8.74   c-23.589,0-46.751,2.995-69.047,8.74v773.931c0,14.322-11.61,25.932-25.932,25.932h-430.012c-25.194,0-45.615,20.423-45.615,45.616   v124.939c0,25.192,20.421,45.615,45.615,45.615h430.012c14.322,0,25.932,11.611,25.932,25.933v642.954   c0,14.093,11.426,25.518,25.518,25.518h87.056c14.092,0,25.518-11.425,25.518-25.518v-642.954   c0-14.323,11.611-25.933,25.932-25.933H3120.4c21.43,0,38.801-17.372,38.801-38.801v-138.568   C3159.2,2549.824,3141.83,2532.452,3120.4,2532.452z M2436.842,2668.498h-231.111c-14.324,0-25.932-11.611-25.932-25.933   c0-14.323,11.608-25.933,25.932-25.933h231.111c14.324,0,25.932,11.611,25.932,25.933   C2462.774,2656.888,2451.167,2668.498,2436.842,2668.498z M2963.091,2668.498h-231.113c-14.324,0-25.935-11.611-25.935-25.933   c0-14.323,11.61-25.933,25.935-25.933h231.113c14.324,0,25.932,11.611,25.932,25.933   C2989.023,2656.888,2977.415,2668.498,2963.091,2668.498z"/><path d="M2050.732,3339.67c-12.476-7.717-23.853-16.923-33.936-27.34c-15,7.777-35.355,10.407-55.744,10.409   c-33.184,0-66.274-6.784-75.768-8.893c-7.304-1.578-32.666-8.057-45.48-23.791l-461.012-566.094   c-267.187-328.094-414.332-743.798-414.332-1170.538V963.528c0-20.589,9.111-39.721,24.998-52.494   c15.605-12.539,35.757-17.278,55.28-12.975c69.753,15.35,142.827,23.133,217.188,23.133c237.574,0,459.633-82.005,579.52-214.012   c12.785-14.077,30.821-22.155,49.471-22.155c0.005,0,0,0,0.005,0c18.65,0.003,36.681,8.078,49.464,22.158   c119.884,132.004,341.94,214.009,579.514,214.009c74.365,0,147.437-7.783,217.192-23.133c19.526-4.307,39.676,0.433,55.283,12.975   c15.885,12.773,24.997,31.906,24.997,52.494v589.897c0,21.1-0.363,42.433-1.075,63.417l1.001,147.596   c18.485,17.773,35.157,37.818,49.54,59.964l35.313,54.375c16.588,25.542,55.897,17.463,61.067-12.552l16.652-96.687   c8.956-79.419,13.89-164.524,13.89-239.723l-3.799-684.396c0-32.703-15.054-61.845-41.304-80.097   c-24.968-17.358-55.515-21.286-83.827-10.774c-92.051,34.188-243.198,52.074-344.93,52.074   c-242.778,0-467.71-99.665-601.689-266.601c-6.796-8.47-16.744-13.329-27.296-13.329c-10.547,0-20.495,4.859-27.293,13.329   c-133.981,166.937-358.915,266.601-601.695,266.601c-103.117,0-202.704-17.568-295.991-52.217   c-28.309-10.514-58.862-6.586-83.828,10.776c-26.25,18.253-41.307,47.393-41.307,79.952v684.682   c0,482.772,168.485,951.246,474.418,1319.122l444.483,534.475c57.688,69.364,184.03,85.551,256.944,33.541l38.88-45.771   C2063.832,3361.399,2061.647,3346.422,2050.732,3339.67z"/><path d="M2017.99,2846.103V3186.4c0,54.893,34.084,103.479,84.813,120.903l331.072,113.715   c16.566,5.691,33.808-6.618,33.808-24.134v-596.398h-404.078C2038.411,2800.487,2017.99,2820.909,2017.99,2846.103z"/><path d="M2091.942,2255.946c-34.023,52.387-56.721,110.792-67.204,171.943c-4.734,27.614,17.047,52.699,45.066,52.699h397.879   v-728.902c-45.48,22.091-85.016,56.596-113.831,100.967L2091.942,2255.946z"/></g></svg>