<svg xmlns="http://www.w3.org/2000/svg" xmlns:xlink="http://www.w3.org/1999/xlink" version="1.1" x="0px" y="0px" viewBox="0 0 128 160" style="enable-background:new 0 0 128 128;" xml:space="preserve"><path d="M23.3964806,79.9462967c1.3476009,0.3569031,2.7929993,0.5376053,4.2959003,0.5376053  c2.4520988,0,4.9336185-0.4721985,7.2177982-1.3554993c-7.3505993-0.0586014-13.1796989-2.5121994-16.8691788-7.1040039  c-1.2451191-1.5503006-2.2578192-3.2329025-3.1338196-5.0018997C15.6972809,72.8144989,18.4433804,78.6356964,23.3964806,79.9462967  z"/><path d="M27.9374809,35.6371994c-0.8124809-0.8349991-1.9111004-1.2406998-3.3593998-1.2406998  c-0.9892006,0.0004997-2.1366997,0.2006989-3.3700809,0.580101c3.4580002,1.535099,6.4530811,3.9632988,8.6308804,6.0708008  C29.6190815,38.5493011,28.9755802,36.7030983,27.9374809,35.6371994z"/><path d="M54.1034813,50.3666992c-1.3222008,0-2.8896027,0.4496994-4.6797028,1.3398018  c2.9805031,0.713398,6.6543007,1.9418983,9.7940025,4.0327988C58.5272789,53.0513,57.0897789,50.3666992,54.1034813,50.3666992z"/><path d="M14.3261814,97.5653992C16.5663815,97.8628006,18.7392807,98,20.8397808,98  c17.3038006,0,29.7705975-9.2861023,35.5157013-14.6327972c2.5195198-2.3467026,4.4735985-5.2232056,6.2616997-8.1929016  l25.1483994-41.7671013c0.4131012-0.6884003,0.2637024-1.0600014-0.3348999-1.0600014  c-0.1337967,0-0.2901001,0.0185013-0.467804,0.0561028c-4.0146942,0.8530006-7.9735947,1.2798004-11.8358765,1.2798004  c-19.5743179,0-36.6631203-10.9629021-45.9053192-32.9824181C29.0263805,0.235352,28.7577801,0,28.4794807,0  c-0.2616997,0-0.5312996,0.208496-0.7539005,0.628906c0,0-23.4228992,44.2499924-23.4843979,44.3656921  c-1.6875002,3.1856003-2.7490001,6.2803001-3.3760002,9.8120003c-1.6064,9.0629997-2.2928998,26.1030998,10.2481003,41.0053978  C11.7431812,96.5634995,13.3446808,97.4365005,14.3261814,97.5653992z M22.7216816,91.1846008  c-0.4824009,0.060997-0.9473,0.089798-1.3945999,0.089798c-6.2314005,0-9.1738005-5.5555954-9.2050009-5.6156998  c-0.2530003-0.4906998-0.0605993-1.0942001,0.4306002-1.3471985c0.4903193-0.2548981,1.0917997-0.060997,1.3457003,0.4291992  c0.1220999,0.232399,2.7988997,5.1923981,8.5693998,4.4595032c0.5536995-0.0698013,1.049799,0.317894,1.1191006,0.8656998  C23.6562805,90.6138,23.2694817,91.1143036,22.7216816,91.1846008z M27.0692806,89.5874023  c-0.2402,0.4286957-0.7900009,0.5844955-1.2275009,0.3456955c-0.4374981-0.2388-0.5946999-0.7782974-0.3515987-1.2074966  c0.2441998-0.4291992,0.7940006-0.5839996,1.2285995-0.3451996C27.1552811,88.6182022,27.3124809,89.1592026,27.0692806,89.5874023z   M46.9472809,41.8218002c0.4559975-0.1944008,11.2588005-4.6831017,21.7313995,3.7416992  c0.4307022,0.346199,0.4981003,0.9761009,0.1523972,1.4062004c-0.1972961,0.2456017-0.4872971,0.3731003-0.7802963,0.3731003  c-0.2197037,0-0.4413986-0.0723-0.6259995-0.2206993c-9.5449028-7.6791992-19.5889015-3.5049019-19.6885033-3.4624023  c-0.5077972,0.216301-1.0946999-0.0165977-1.3134003-0.5243988C46.2050819,42.6273994,46.4394798,42.0396004,46.9472809,41.8218002z   M45.7685814,51.5098c3.4754982-2.2538986,6.1991997-3.1431007,8.3348999-3.1431007  c5.8565178,0,7.2860985,6.6929016,7.6308975,10.2778015c0.0703011,0.7290001-0.1103783,1.0971985-0.4491997,1.0971985  c-0.2247009,0-0.5205994-0.1620979-0.8593979-0.4892998c-4.1983032-4.0555992-10.9384995-5.6245003-14.3642998-6.1820984  C44.8856812,52.8773994,44.7265816,52.1860008,45.7685814,51.5098z M42.8681793,43.3451996  C43.1103821,42.9169998,43.6591797,42.7612,44.0956802,43c0.4356003,0.2388,0.5937996,0.778801,0.3496017,1.2080002  C44.2040787,44.6362,43.6562805,44.7910004,43.2177811,44.5527C42.7812805,44.3144989,42.6240005,43.7733994,42.8681793,43.3451996z   M25.1591816,22.6865005c7.4491978,0.9326,15.2754002,7.5396004,14.5995998,14.9854012  c-0.3701019,4.0717964-2.7392998,8.9310989-7.2422028,14.8563995c-2.0614986,2.7143974-4.4306984,5.3603973-7.0477982,7.8731003  c0.7255001,1.0746994,2.4687004,3.277298,5.3143997,4.6562004c1.4951019,0.7237015,3.1142998,1.1352997,4.8115005,1.2237015  c0.5517998,0.0282974,0.9756012,0.4989929,0.947319,1.0501938c-0.0283203,0.5342026-0.4697189,0.9483032-0.9981194,0.9483032  c-0.0175018,0-0.035099-0.0005035-0.0527-0.001503c-1.9658012-0.1019974-3.8428001-0.580101-5.5790997-1.4208984  c-4.4726009-2.1669998-6.5214996-5.9945984-6.6074009-6.1567001c-0.2089996-0.3974991-0.1259995-0.8862,0.2012005-1.1938972  c2.7723999-2.6035004,5.2684994-5.3584023,7.4188995-8.1884003c4.2686024-5.6177025,6.5067997-10.1407013,6.8417988-13.8272018  c0.5664215-6.2426987-6.4452972-12.0175991-12.8554974-12.8202991c-0.5478001-0.0683994-0.9365005-0.5683994-0.868082-1.1161995  C24.1122799,23.0067997,24.6093807,22.6142998,25.1591816,22.6865005z M17.3104801,34.3921013  c1.8066998-0.8852997,4.6036015-1.9951019,7.267601-1.9956017c3.9326,0,7.5790997,2.4179993,7.3339996,11.5473022  c-0.0214996,0.730999-0.2714996,1.1093979-0.6366997,1.1093979c-0.2481003,0-0.5488014-0.1738014-0.8672009-0.5303001  c-2.2919998-2.5615005-7.2099991-7.3578987-12.9296989-8.7172012C16.3202801,35.528801,16.2020817,34.9365005,17.3104801,34.3921013  z M13.1815805,59.5693016c0.0782003-0.4794998,0.2022009-0.7216034,0.3487005-0.7216034  c0.1377192,0,0.2938995,0.2138023,0.4502001,0.6450005c1.4286995,3.9507027,2.9667997,7.977005,5.6200991,11.2793045  c3.8086014,4.7406998,9.6308002,6.3529968,15.5557003,6.357399c0.0195007,0,0.0390015,0,0.0584984,0  c2.1944008,0,4.589901-0.1094055,6.7608032-0.7201996c0.2694969-0.0756989,0.472599-0.1133041,0.6054993-0.1133041  c0.3241997,0,0.2402,0.2207031-0.2793007,0.6503983c-1.1376991,0.9393997-2.3232994,1.8169022-3.6064987,2.5713043  c-3.2031021,1.8817978-7.137701,2.966301-11.0029011,2.966301c-1.6348,0-3.2578011-0.1939011-4.8076-0.6040039  c-7.4618998-1.9746017-10.1269999-11.4052963-10.2167807-18.0077972  C12.6483812,62.3895988,12.9481812,60.9902,13.1815805,59.5693016z M11.2714806,80.9614029  c0.2422009-0.4277039,0.7900009-0.5835037,1.227519-0.3451996c0.4364815,0.2382965,0.5947809,0.7798004,0.3515816,1.2080002  c-0.2421999,0.4286957-0.7930002,0.5839996-1.2294998,0.344696C11.1845808,81.9311981,11.0272808,81.3900986,11.2714806,80.9614029z  "/><path d="M94.1034775,80.3666992c-1.322197,0-2.889595,0.4496994-4.6796951,1.339798  c2.9804993,0.7134018,6.6542969,1.9419022,9.7939987,4.0328064C98.5272751,83.0513,97.0897751,80.3666992,94.1034775,80.3666992z"/><path d="M69.2606812,68.0180969l-0.9716034,1.6123047c0.5517044,0.4789963,1.073204,0.9560013,1.5498047,1.4169998  C69.7372818,69.8916016,69.5410004,68.8817978,69.2606812,68.0180969z"/><path d="M58.0410004,102.0243988c-1.245121-1.5503006-2.2578201-3.2329025-3.1338196-5.0018997  c0.7901001,5.7919998,3.5361977,11.6131973,8.4892998,12.9237976c1.347599,0.3569031,2.7929955,0.5376053,4.2959023,0.5376053  c2.452095,0,4.9336166-0.4721985,7.2177963-1.3554993C67.5595779,109.0698013,61.7304802,106.6162033,58.0410004,102.0243988z"/><path d="M69.2216797,30.7007008C69.0263824,30.2353992,68.757782,30,68.4794769,30  c-0.2616959,0-0.5312958,0.2084999-0.7538986,0.6289005c0,0-0.0859985,0.1620998-0.2432022,0.4599991  c0.6719055,0.1058998,1.347702,0.2011013,2.0313034,0.278801C69.4169998,31.1439991,69.3163834,30.9267998,69.2216797,30.7007008z"/><path d="M80.7685776,48.9062996l-5.2988968,8.7988014c2.8233185,2.7030983,4.6279984,6.2285004,4.2891006,9.9667969  c-0.3701019,4.0718002-2.7393036,8.9310989-7.2422028,14.8563995c-2.0615005,2.7144012-4.4307022,5.360405-7.0477982,7.8731003  c0.725502,1.0746994,2.4686966,3.2773056,5.3143997,4.6562042c1.4951019,0.7237015,3.114296,1.1352997,4.8115005,1.2237015  c0.551796,0.0282974,0.9756012,0.4989929,0.947319,1.0501938c-0.0283203,0.5342026-0.4697189,0.9483032-0.9981232,0.9483032  c-0.0174942,0-0.0350952-0.0005035-0.0526962-0.001503c-1.9657974-0.1019974-3.842804-0.580101-5.5791016-1.4208984  c-4.4726028-2.1669998-6.5214996-5.9945984-6.607399-6.1567001c-0.2089996-0.3974991-0.1259995-0.8862,0.2011986-1.1939011  c2.7724037-2.6035004,5.2684975-5.3583984,7.4189034-8.1884003c4.2686005-5.6176987,6.5067978-10.1407013,6.8417969-13.8271942  c0.2656021-2.9277039-1.1464996-5.7451019-3.3701019-8.0024033l-3.8603973,6.4105988  c0.9327011,1.7807999,1.4746017,4.3583984,1.3759995,8.0444031c-0.0214996,0.7309952-0.2714996,1.1093979-0.6366959,1.1093979  c-0.2481003,0-0.5488052-0.1737976-0.8672028-0.5302963c-0.7763977-0.8676071-1.8593979-1.9921036-3.1669998-3.1518021  l-2.9111023,4.8349991c-1.6718979,2.7768021-3.764698,5.9730988-6.6112976,8.6244965  c-3.6162987,3.3662033-9.6495018,8.0757065-17.6934013,11.3530045c0.2539024,8.8334961,2.735302,19.703598,11.0879021,29.6283951  c0.6298981,0.751503,2.2313995,1.6245041,3.2128983,1.7534027C56.5663795,127.8628006,58.7392807,128,60.8397789,128  c17.3037987,0,29.7706032-9.2861023,35.5156975-14.6327972c2.5195236-2.3467026,4.4736023-5.2232056,6.2617035-8.1929016  l25.1483994-41.7671013c0.4131012-0.6884003,0.2637024-1.0600014-0.3348999-1.0600014  c-0.1338043,0-0.2901001,0.0185013-0.467804,0.0561028c-4.0146942,0.8530006-7.9735947,1.2798004-11.8358765,1.2798004  C102.0224762,63.6831017,90.0360794,58.7616997,80.7685776,48.9062996z M51.6210785,112.1688995  c-0.4364967-0.2377014-0.5937996-0.778801-0.3495979-1.2074966c0.2421989-0.4277039,0.7900009-0.5835037,1.22752-0.3451996  c0.4364777,0.2382965,0.59478,0.7798004,0.3515778,1.2080002C52.6083794,112.2528992,52.057579,112.4082031,51.6210785,112.1688995z   M62.7216797,121.1846008c-0.482399,0.060997-0.9473,0.089798-1.3945999,0.089798  c-6.2313995,0-9.1738014-5.5555954-9.204998-5.6156998c-0.2530022-0.4906998-0.0606003-1.0942001,0.4305992-1.3471985  c0.4893188-0.2544022,1.0918007-0.060997,1.3456993,0.4291992c0.1221008,0.2320023,2.7989006,5.1939011,8.5694008,4.4595032  c0.5536995-0.0684052,1.0497971,0.3183975,1.1190987,0.8656998C63.6562805,120.6138,63.2694778,121.1143036,62.7216797,121.1846008z   M67.0692825,119.5874023c-0.2402039,0.4286957-0.7900009,0.5844955-1.2275009,0.3456955s-0.5947037-0.7782974-0.3516006-1.2074966  c0.2442017-0.4291992,0.7939987-0.5839996,1.2285995-0.3451996  C67.1552811,118.6182022,67.3124771,119.1592026,67.0692825,119.5874023z M86.9472809,71.8218002  c0.4560013-0.1939011,11.2597198-4.6836014,21.7313995,3.7416992c0.4306946,0.346199,0.4981003,0.9760971,0.1523972,1.4062042  c-0.1972961,0.2455978-0.4872971,0.3730927-0.7802963,0.3730927c-0.2197037,0-0.4414063-0.0722961-0.6259995-0.2206955  c-9.5449066-7.6787033-19.5889053-3.5044022-19.6884995-3.4624023c-0.5078049,0.2168045-1.0947037-0.0166016-1.3134003-0.5243988  C86.2050781,72.6274033,86.439476,72.0395966,86.9472809,71.8218002z M85.7685776,81.5098038  c3.475502-2.2539063,6.1992035-3.1431046,8.3348999-3.1431046c5.8565216,0,7.2861023,6.6929016,7.6308975,10.2778015  c0.0703049,0.7289963-0.1103745,1.0971985-0.4491959,1.0971985c-0.2247009,0-0.5205994-0.1621017-0.8593979-0.489296  c-4.1983032-4.055603-10.9384995-5.6245041-14.3643036-6.182106C84.8856812,82.8774033,84.7265778,82.185997,85.7685776,81.5098038z   M82.8681793,73.3451996C83.1103821,72.9169998,83.6591797,72.7612,84.0956802,73  c0.4356003,0.2388,0.5937958,0.778801,0.3496017,1.2080002c-0.2412033,0.4281998-0.7890015,0.5830002-1.2275009,0.344696  C82.7812805,74.3144989,82.6240005,73.7733994,82.8681793,73.3451996z M82.3017807,106.9462967  c-1.1377029,0.9393997-2.3233032,1.8169022-3.6064987,2.5713043c-3.2031021,1.8817978-7.1377029,2.966301-11.0028992,2.966301  c-1.6348038,0-3.2578049-0.1939011-4.8076019-0.6040039c-7.4619026-1.9746017-10.1270027-11.4052963-10.2167816-18.0077972  c-0.019619-1.4824982,0.2801819-2.8819046,0.5135803-4.302803c0.0782013-0.4794998,0.2022018-0.7215958,0.3487015-0.7215958  c0.1377182,0,0.2938995,0.2137985,0.4501991,0.6449966c1.4286995,3.9506989,2.9668007,7.977005,5.6200981,11.2793045  c3.8086014,4.7406998,9.6307983,6.3529968,15.5557022,6.357399c0.0195007,0,0.0390015,0,0.0585022,0  c2.194397,0,4.5898972-0.1094055,6.7607956-0.7201996c0.2695007-0.0756989,0.4726028-0.1133041,0.6054993-0.1133041  C82.9052811,106.2958984,82.8212814,106.5166016,82.3017807,106.9462967z"/></svg>