<svg xmlns="http://www.w3.org/2000/svg" viewBox="0 0 100 125" x="0px" y="0px"><title>Handshake</title><g data-name="Layer 2"><path d="M88.93,37.14A12.69,12.69,0,0,0,85,40.56a9.88,9.88,0,0,0-3.59-3.72.71.71,0,0,0-.88,1.08c1.21,1.29,2.49,2.45,3.6,3.79-.83,1.16-1.6,2.41-2.36,3.63-1.3-1.78-3-3.41-5.18-3.79a.72.72,0,0,0-.52,1.27,26.2,26.2,0,0,0,2.79,1.89,13.88,13.88,0,0,1,2.2,1.79,33.06,33.06,0,0,1-2.11,3l-.65.78A10.17,10.17,0,0,0,76,47.93c-1.41-1.25-3.55-3.56-5.57-3.51a.61.61,0,0,0-.52.8c.52,1.51,2.41,2.38,3.66,3.24,1,.69,3,1.6,3.93,2.76-.9,1-1.86,2-2.79,3a16.32,16.32,0,0,0-2.35-3C70.8,49.46,69,46.73,66.63,46a.77.77,0,0,0-1,1c.66,2,2.8,3.4,4.31,4.74,1.3,1.15,2.75,2.21,4,3.47a26.11,26.11,0,0,0-2.38,3.17l-5.28-5.86C61,46.71,56.36,40.6,49.42,36.9a13.41,13.41,0,0,0,3.36-7.61,1.09,1.09,0,0,0-1.88-.68,62.76,62.76,0,0,1-8.55,9.59c-.51.46-3.69,3.69-4.91,3.92-6,1.13-.47-5.95.41-7.13a58.64,58.64,0,0,1,8.91-9.14c1.67-1.44,3.13-3.8,5.46-2.3,1.82,1.17,3.45,4.34,5,5.94a1.22,1.22,0,0,0,1.9-.21,64.23,64.23,0,0,1,6.53-7.84c.24-.26-.06-.77-.39-.54a65.61,65.61,0,0,0-6.87,5.84C56.87,24,54.65,20,52.44,19s-3.7,1-5.31,2.34c-2.67,2.22-5.85,4.77-8.67,7.62a1.88,1.88,0,0,0-.21-.25,37.23,37.23,0,0,1-5.74-7.56,1.11,1.11,0,0,0-2,.83c.49,3.42,2.76,6.78,5.19,9.14a1.83,1.83,0,0,0,.5.34,21.79,21.79,0,0,0-4.57,8c-1.43,5.17,3,7.58,7.4,5.45a33.67,33.67,0,0,0,8.66-6.14c3,3.21,6.35,6,9.28,9.22q4.8,5.36,9.62,10.71l4.35,4.83c1.39,1.54,4.15,3.63,5,5.52,1.8,4.12-4.15,2.6-7.15,1.68-1.46-1.94-3.64-3.3-5.49-4.83-2.2-1.82-4.28-3.77-6.59-5.48-.48-.36-1.08.3-.82.78A30.85,30.85,0,0,0,61,68.14c1.1,1.15,2.33,2.21,3.4,3.4,1.43,1.59,2.51,2.56.85,4.26-3.16,3.23-7.87-2.21-9.57-4.89-1.42-2.23-2.07-4.83-4.74-5.74A1.5,1.5,0,0,0,49.17,67a23.82,23.82,0,0,0,9,12.18c.71,1.46,1.37,2.89.36,4.14-2.41,3-5.6.66-7.31-1.54-1.88-2.41-3.64-6.69-6.57-8a6.75,6.75,0,0,0-2.18-6.11,5.16,5.16,0,0,0-2.28-1.06c2.21-2.65,3.64-5.78,2.06-8.8-2-3.8-6.77-6.09-10.39-3.41a29.59,29.59,0,0,0-4.62,4.49,61.08,61.08,0,0,0-7.22-7.29c-2.22-1.94-4.64-5.36-7.41-6.41a.48.48,0,0,0-.66.48c0,2.74,2.69,5.61,4.47,7.51,2.73,2.93,5.65,5.57,8.14,8.72l.08.08c-.61.73-1.21,1.44-1.82,2.11-1.88,2.07-4.21,4.3-4.13,7.33.12,4.67,4.91,5.38,8.52,4.32-1.79,3.37-2.67,7.51,1,9.71a11.91,11.91,0,0,0,5.15,1.43c0,.08,0,.15,0,.23,0,3.13,3.56,4.64,6.25,4.47,3.79-.24,6.37-3,8.35-6a.82.82,0,0,0-1.29-1c-1.91,1.91-4.34,4.14-7.22,4-1.31,0-1.67-.11-2.12-1.4-.24-.7-.33-1-.22-1.22a3.05,3.05,0,0,0,.9-1c.55-.56,1.13-1.09,1.7-1.62,1-.94,3.13-2.41,4.57-4C45.47,81,46.93,82.63,47.95,84c1.74,2.3,4.09,4.71,7.22,4.64,2.7-.06,6.47-2.4,7.17-5.16a4.45,4.45,0,0,0-.19-2.62,7.84,7.84,0,0,0,5.25-.73,5.32,5.32,0,0,0,2.86-4.54c5.15,1.27,12.31-1.15,10.19-6.72-1.13-3-4.51-5.63-6.57-7.91l-.64-.71c3.28-2,6-5.38,8.43-8.16,3.29-3.83,7.43-8.8,8.74-13.74A1.11,1.11,0,0,0,88.93,37.14ZM27.78,74.79c-1.55-.16-3.1-.37-4.64-.65Q20.3,70.22,23,67.67a23.09,23.09,0,0,1,3-3.24c2.12-2.31,4.15-4.72,6.38-6.92,1.45-1.44,2.31-2.41,4.73-1.3a5,5,0,0,1,2.32,7.19,15.59,15.59,0,0,1-3,3.71,18.88,18.88,0,0,0-7.08,5.58A21,21,0,0,0,27.78,74.79ZM38.65,80A43,43,0,0,0,35,83.4a7.86,7.86,0,0,1-4-.55c-4-2.11.46-7.72,2.17-9.43,2.15-2.15,8.18-6.08,9-.27a9.83,9.83,0,0,1-.33,3.77C40.61,77.94,39.45,79.29,38.65,80Z"/></g></svg>