<svg xmlns="http://www.w3.org/2000/svg" xmlns:xlink="http://www.w3.org/1999/xlink" version="1.1" x="0px" y="0px" viewBox="0 0 100 125" style="enable-background:new 0 0 100 100;" xml:space="preserve"><g><g><path d="M22.9,63.3c0-0.3,0-0.5,0-0.7c-0.2,0.1-0.3,0.2-0.5,0.3c-0.2,0-0.5,0-0.7-0.2c-0.5-0.4-1-1-1.6-1.3    c-0.9-0.6-1.3-1.5-1.8-2.3c-0.7-1.3-1.6-2.6-1.7-4.2c0-0.5-0.4-1-0.6-1.5c-0.1-0.2,0.1-0.5,0.1-0.6c-0.2-0.3-0.6-0.7-0.5-0.9    c0.4-1-0.6-1.7-0.6-2.6c0-0.9-0.2-1.8-0.3-2.8c0,0,0.2,0,0.4,0c-0.2-0.2-0.4-0.4-0.4-0.6c-0.1-0.6-0.2-1.2-0.2-1.9    c0-1.1-0.3-2.3,0-3.3c0.4-1.4,0-2.9,0.6-4.3c0.6-1.5,0.7-3.1,1-4.7c0.4-2.2,1.5-4.1,2.5-6c0.8-1.5,1.5-2.9,2.2-4.4    c0.9-1.8,2.2-3.2,3.7-4.5c1.1-0.9,2.3-1.7,3.3-2.5c-0.2,0-0.5-0.1-0.9-0.2c0-0.1,0-0.1,0-0.2c0.3,0,0.5,0,0.8,0    c0.7-0.1,1.4-0.1,1.9-0.9c0.6-1,2.6-1.6,4.2-0.9c1.5,0.7,3.1,0.6,4.7,0.8c1.6,0.2,3.3,0.6,4.8,1.2c1.2,0.4,2.4,1,3.3,1.8    c1.9,1.6,3.1,3.7,3.8,6.1c0.5,1.5,0.6,3,0.9,4.5c0.2,0.8,0.4,1.7,0.5,2.5c0.2,1.2,0.3,2.3,0.4,3.5c0.1,1.7,0.1,3.5,0.1,5.2    c0,0.9-0.1,1.8-0.3,2.7c-0.3,2.1-0.5,4.2-1.1,6.2c-1.1,3.5-2.4,6.9-4.8,9.9c-1.9,2.4-4.1,4.4-6.9,5.7c-3.2,1.5-6.7,2.3-10.3,2.2    c-1.2-0.1-2.3-0.2-3.5-0.4c-0.6-0.1-1-0.6-1.6-0.8C23.6,63.1,23.2,63.2,22.9,63.3z M42.2,30.8c-0.3-0.6-0.3-1.2-0.5-1.8    c-0.7-1.7-1-3.5-1.6-5.2c-0.5-1.7-1.1-3.3-1.8-4.9c-0.2-0.6-0.6-1.1-1-1.6c-1.8-2-4.2-2.4-6.6-2.1c-3.1,0.5-5.3,2.5-7.1,4.9    c-1.4,1.9-2.5,4.1-3.5,6.3c-0.8,1.6-1.4,3.2-1.8,4.9c-0.8,3.3-1.3,6.6-1.2,10c0,1.3-0.1,2.6,0.1,3.9c0.4,3.5,1.2,7,2.5,10.3    c0.8,2,1.8,3.9,3.6,5.2c2.2,1.5,4.5,2.4,7.2,1.3c1.8-0.7,3.8-1.3,4.8-3.4c0.2-0.3,0.9-0.4,1.2-0.7c0.6-0.6,1.2-1.4,1.7-2.1    c0.4-0.5,0.7-1,1-1.5c0,0-0.1-0.1-0.1-0.1c-0.2,0.1-0.3,0.2-0.5,0.3c0-0.8,0.2-1.3,1-1.6c0.4-0.1,0.7-0.5,0.9-0.9    c0.8-1.8,1.6-3.6,2.3-5.5c0.3-0.9,0.4-1.8,0.6-2.7c0.1-0.3,0-0.7,0.1-1c0.1-0.3,0.3-0.6,0.4-0.9c0.2-1,0.3-2.1,0.5-3.1    c0.4-3.6,0.3-7.2-0.9-10.7c-0.2-0.6-0.4-1.2-0.7-1.7C42.4,28,42.8,29.4,42.2,30.8z M37.8,58.1c1-0.2,1.9-0.2,2.7-0.5    c1.5-0.7,3-1.5,4.5-2.3c0,0,0,0,0.1-0.1c0.5-0.8,1.1-1.6,1.6-2.4c-1.9,0.4-3.7,0.8-5.6,1.3c-0.2,0.1-0.5,0.2-0.6,0.3    C39.6,55.7,38.8,56.8,37.8,58.1z M46.1,33.3c0.4,0.1,0.8,0.2,1.3,0.3c0.8,0.2,1.6,0.4,2.4,0.6c0.2,0,0.6-0.3,0.5-0.5    c-0.1-1.2-0.2-2.5-0.3-3.9c-1.5,1.3-2.8-0.1-4.1-0.1C45.9,31,46,32.2,46.1,33.3z M45.3,27.9c1.7-0.1,3,0.8,4.6,1.5    c-0.3-1.6-0.7-3-0.9-4.3c-1.3-0.1-2.5-0.1-3.6-0.3c-0.8-0.1-0.9,0.1-0.7,0.8C44.9,26.4,45.1,27.2,45.3,27.9z M48.8,47.7    c0.2-0.9,0.5-1.8,0.7-2.5c-1.7-0.2-3.2-0.4-4.8-0.6c-0.3,1-0.7,2.1-1,3.3C45.3,47.9,47,47.8,48.8,47.7z M50.3,35.9    c-1.5-0.2-2.9-0.4-4.3-0.6c-0.1,0.9-0.2,1.9-0.2,2.8c1.5,0.4,3,0.8,4.4,1.1C50.3,38,50.3,36.9,50.3,35.9z M48.1,49.3    c-1.5,0-3,0.2-4.4,0c-0.6-0.1-0.9,0.2-1.1,0.5c-0.4,0.9-0.7,1.8-1,2.8c0.3-0.1,0.5-0.1,0.8-0.2c1-0.3,2.1-0.6,3.1-0.8    C47.7,51.4,47.5,51.3,48.1,49.3z M45,42.9c1.4,0.1,2.8,0.3,4.1,0.4c0.2,0,0.7-0.1,0.7-0.2c0.2-0.7,0.3-1.5,0.4-2    c-1.6-0.3-3.1-0.6-4.6-0.9C45.4,40.9,45.2,41.8,45,42.9z M42,58.6c-0.1,0-0.2,0-0.3,0c-1.7,0.8-3.4,1-5.2,1.1    c-0.2,0-0.4,0.2-0.6,0.3c-1.1,0.9-2.2,1.9-3.2,2.7C34.5,62.7,39.7,60.8,42,58.6z M40.4,17.2c0.6,0.9,0.8,1.9,2,1.5    c0.2-0.1,0.6,0.2,0.8,0.3c0.5,0.3,1,0.6,1.6,0.8c0.8,0.3,1.6,0.5,2.3,0.7c0.1-0.1,0.2-0.3,0.2-0.4c-1-0.9-1.8-2-3-2.5    C43.3,17.2,41.9,17.3,40.4,17.2z M47.8,21.6c-1.9,0.7-3.5-0.1-5.2-0.8c0.5,1.1,1,2.1,1.5,3.2c0.5-1.1,1.2-0.8,2-0.6    c0.8,0.2,1.7,0.3,2.6,0.5C48.4,23.1,48.1,22.4,47.8,21.6z M38.5,14.7c0,0.1,0,0.1-0.1,0.2c0.5,0.5,1,1.1,1.5,1.6    c0.5-0.3,0.9-0.6,1.5-0.9C40.3,15.3,39.4,15,38.5,14.7z"/><path d="M50.8,73.8c-0.1,0.1-0.1,0.2-0.2,0.4c-0.1,0-0.2,0-0.2,0c0.1-0.7,0.2-1.5,0.4-2.1c0.6-1.7,1.1-3.5,2-5.2    c0.8-1.5,2-2.8,3.6-3.7c1.6-0.9,3.2-1.8,4.9-2.6c0.6-0.3,1.3-0.4,2-0.5c2.7-0.3,5.5-0.6,8.2-0.8c1.9-0.1,3.6,0.6,5.3,1.4    c1,0.5,2,0.9,3,1.4c0.8,0.4,1.5,1,2.2,1.6c1.4,1.2,2.7,2.5,3.3,4.4c0.2,0.5,0.2,1.1,0.2,1.6c-0.1,1.9,0.7,3.7,0.2,5.6    c-0.6,2-1.2,3.9-2.4,5.7c-1.9,2.9-4.6,4.7-7.7,5.9c-2.6,1-5.2,1.6-7.9,1.5c-3.7-0.1-7.1-0.9-10.4-2.9c-2.4-1.4-4.3-3.2-5.6-5.7    c-0.8-1.5-0.8-3.2-0.7-4.8c0-0.3,0.1-0.6,0.2-1C50.9,73.9,50.8,73.9,50.8,73.8z M69,82c0.6,0.5,1,1,1.1,1.8c0,0.7,0.1,1.4,0.1,2.1    c1.5,0.2,3.2-1.4,2.9-2.9c-0.1-0.6,0-1.2-0.1-1.7C71.7,81.6,70.3,81.8,69,82c-1.4,0.1-2.8,0.1-4,0.2c0.1,0.5,0.3,1.1,0.3,1.7    c-0.1,0.6-0.4,1.1-0.7,1.8c1.3,0.1,2.6,0.2,4.1,0.4c0-0.8-0.1-1.4-0.1-2.1C68.6,83.3,68.8,82.7,69,82z M80,74.6    c1.4-1.2,2.7-2.7,3-4.6c0.1-0.7,0.2-1.5-0.2-2c-0.9-1.1-1.9-2.1-3-3.1c-0.7-0.6-1.5-0.9-2.3-1.3c-1-0.5-2-1.2-3.1-1.5    c-4.1-1-8.1-0.7-12.1,0.8c-1.4,0.5-2.7,1.3-4.1,2c-2.5,1.3-4.3,3.4-5.3,6c-0.4,1-0.2,1.6,0.7,2.2c2.7,1.7,5.3,3.4,8.3,4.6    c3.6,1.5,7.1,2.2,11,1C75.5,77.9,78,76.7,80,74.6z M61.2,81.2c-0.2,1.1-0.4,2.1-0.6,3.2c0.8,0.3,1.7,0.6,2.8,1    c0.1-1.2,0.2-2.3,0.3-3.4C63,81.7,62,81.4,61.2,81.2z M56.7,82.2c0.7,0.4,1.7,0.8,2.8,1.4c0-1-0.1-2-0.1-2.9    c0-0.1-0.2-0.2-0.3-0.2c-0.7-0.3-1.3-0.6-1.9-0.9C57.1,80.4,56.9,81.2,56.7,82.2z M74.1,80.9c0.2,0.6,0.4,1.3,0.6,2    c0.2,0.5,0.5,1.1,1.1,0.8c0.4-0.2,0.8-0.8,0.8-1.2c0-0.9-0.2-1.8-0.3-2.7C75.6,80.1,74.9,80.5,74.1,80.9z M55.6,81.4    c0-1,0.1-1.8,0.1-2.6c0-0.1-0.1-0.2-0.1-0.2c-0.9-0.7-1.9-1.4-2.9-2.2C53.2,78.3,54,80,55.6,81.4z M81.7,76.1    c-0.6,0.4-1.1,0.8-1.6,1.1c0.1,0.6,0.1,1.1,0.3,1.6c0.2,0.4,0.5,0.8,0.7,1.3C82.1,78.8,81.9,77.5,81.7,76.1z M77.4,79.3    c0.2,0.4,0.5,0.7,0.6,1.1c0.1,0.5,0.2,1,0.3,1.6c1-1.1,0.8-2.3,0.6-3.6C78.2,78.7,77.7,79,77.4,79.3z M75.6,84.7    c-0.4-0.4-0.7-0.7-1-1.1c-0.1,0.6-0.3,1-0.4,1.6C74.7,85.1,75.2,84.9,75.6,84.7z M83.8,73.9c-0.9,0.7-0.9,0.7-0.4,2.2    C83.6,75.4,83.7,74.7,83.8,73.9z"/><path d="M26.9,25.4c1.4-1.2,2.8-2.2,4.6-2.7c2.6-0.8,5.3,0.4,6.6,2.6c0.7,1.1,1.3,2.3,1.6,3.6c0.4,1.5,0.6,3.2,0.5,4.7    c-0.1,1.5-0.3,3-1,4.4c-0.5,1.1-0.5,2.4-0.7,3.6c-0.6,3.1-2.3,5.4-4.2,7.8c-1.3,1.6-2.9,2.4-4.7,2.8c-1.5,0.4-3.2,0.4-4.7,0.4    c-0.4,0-1.1-0.5-1.3-1c-1.3-2.6-2-5.4-2.2-8.3c-0.2-3-0.1-6.1,0.8-9c0.5-1.9,1.2-3.7,2.1-5.4C24.9,27.6,26,26.6,26.9,25.4z     M23.3,38.4c0,0.6,0.1,1.2-0.1,1.7c-0.2,1,0.2,1.3,1.2,1.3c0-1-0.1-2-0.1-2.9C23.9,38.5,23.6,38.4,23.3,38.4    c1.3-0.9,1-2.3,1.3-3.6c0,0,0-0.1-0.1-0.2c-0.2,0-0.4,0-0.7,0.1C23.7,35.8,23.5,37.1,23.3,38.4z M32,47.9c0.8,0.8,1.2,0.8,1.8,0    c0.1-0.2,0.3-0.3,0.4-0.5c1.1-1.5,2-3.2,2.4-5.1c0.3-1.6,0.5-3.2,0.7-4.8c0.4-3.1,0.2-6.1-0.7-9.1c-0.4-1.2-0.9-1.4-2-0.8    c-0.6,0.3-1.2,0.9-1.7,1.3c-3.3,3.1-3.7,7-3.5,11.1c0.1,0.9,0.3,1.8,0.5,2.7C30.3,44.6,30.8,46.4,32,47.9z M26.8,48.2    c-0.2,0.3-0.4,0.6-0.6,1c-0.6-1.4-1-1.5-2-1.1c0.7,3,3.2,4.4,7,2c-0.5-0.8-1-1.5-1.4-2.3C28.7,48,27.7,48.1,26.8,48.2z M29.2,46.6    c-0.4-1.1-0.8-2.2-1-3c-0.8-0.2-1.5-0.3-2.1-0.4c0,1.1,0.1,2,0.1,3c0,0.3,0.2,0.7,0.4,0.7C27.5,47,28.4,47.2,29.2,46.6z     M25.1,46.8c-0.1-0.9-0.3-1.8-0.4-2.7c-0.2-1.3-0.2-1.3-1.6-1.4c0.2,1.5,0.4,3,0.6,4.5C24.3,47,24.7,46.9,25.1,46.8z M28,34.6    c-0.7,0.1-1.3,0.2-1.9,0.2c-0.1,1-0.2,2-0.3,2.9c0.6,0.2,1.2,0.3,1.7,0.4C27.6,36.9,27.8,35.8,28,34.6z M31.7,27.6    c-0.6,0.1-1.1,0.2-1.5,0.2c-0.5,0-1-0.5-1.4,0.1c-0.3,0.4-0.6,0.9-0.9,1.4c0.7,0.3,1.2,0.5,1.8,0.8c0.3-0.5,0.6-0.9,0.9-1.3    C30.9,28.4,31.3,28,31.7,27.6z M25.8,39.1c0,0.4,0.1,0.7,0.1,1.1c0.1,1.7,0.1,1.7,1.9,1.6c-0.1-0.9-0.2-1.8-0.3-2.7    C27,39,26.4,39.1,25.8,39.1z M27.1,31.2c-0.2,0.4-0.4,0.7-0.5,1.1c-0.1,0.4-0.2,0.8-0.3,1.2c1.7,0.4,2.4-0.2,2.5-2.1    C28.3,31.3,27.7,31.2,27.1,31.2z M34.2,25.8c-1.1-1-2.5-0.6-3.7,0.6c0.6,0.2,1.1,0.5,1.6,0.6C32.8,26.7,33.5,26.2,34.2,25.8z"/><path d="M77.8,66.9c0.6,0.5,0.7,1.3,1,2.1c0.6,1.4-0.6,1.8-1.1,2.5c-0.5,0.9-1.3,1.6-1.9,2.4c-0.9,1.1-1.9,2-3.4,1.9    c-1.7-0.2-3.3-0.3-5-0.5c-1.1-0.1-2.3,0-3.2-0.4c-1.5-0.6-3.2-0.7-4.3-2.1c-0.9-1.1-1-3-0.1-4.1c0.5-0.6,1-1.3,1.7-1.8    c0.5-0.4,1.1-0.5,1.7-0.6c0.7-0.2,1.3-0.5,2-0.6c1.3-0.3,2.6-0.7,4-0.9c1.4-0.2,2.9-0.1,4.3,0C75,64.8,76.5,65.6,77.8,66.9z     M61.7,71.1c0.9,0.8,2,1,3,1.2c2,0.4,4.1,0.6,6.2,0.8c0.7,0.1,1,0.5,1,1.2c2.3,0.2,4.5-1.7,5-4.2c-2.7-1.6-5.7-1.8-8.7-1.1    C66.1,69.5,64,70.4,61.7,71.1z M66.6,68.2c1.6-0.4,1.9-0.7,1.7-2.2c-0.6,0.2-1.2,0.3-1.9,0.5C66.5,67.1,66.5,67.6,66.6,68.2z     M69.6,66c0,0.6,0.1,1,0.1,1.5c1.3-0.2,1.7-0.6,1.6-1.5C70.7,66,70.2,66,69.6,66z M63.8,69.1c1.6-0.2,1.1,0,1.5-1.9    C64.1,67.3,63.6,67.9,63.8,69.1z M72.4,67.3c0.7,0,1.6,0.4,2-0.8c-0.5-0.2-1-0.4-1.5-0.6C72.7,66.5,72.6,66.9,72.4,67.3z M60.2,70    c0.1,0.1,0.1,0.1,0.2,0.2c1-0.4,2-0.7,1.7-2.3C61.5,68.6,60.8,69.3,60.2,70z"/></g></g></svg>