<svg xmlns="http://www.w3.org/2000/svg" xmlns:xlink="http://www.w3.org/1999/xlink" version="1.1" x="0px" y="0px" viewBox="0 0 488 575.24375" style="enable-background:new 0 0 488 460.195;" xml:space="preserve"><g><path d="M338.173,224.177l-3.017-87.975h-30.38l-11.624,242.272h50.312l-3.06-89.234l-7.904,12.849   c-0.756,1.228-2.068,1.905-3.411,1.905c-0.715,0-1.438-0.191-2.092-0.593c-1.882-1.158-2.469-3.621-1.312-5.503l14.222-23.121   l-1.239-36.136l-19.288,31.356c-0.755,1.228-2.068,1.905-3.411,1.905c-0.715,0-1.438-0.191-2.092-0.593   c-1.882-1.158-2.469-3.621-1.312-5.503L338.173,224.177z"/><path d="M32.625,136.202L17.008,378.474h24.74v-83.717c0-2.209,1.791-4,4-4s4,1.791,4,4v83.717h21.654L59.843,136.202H32.625z"/><path d="M123.456,136.202l-10.448,242.272h49.907l-5.779-242.272h-13.21v111.539c0,2.209-1.791,4-4,4s-4-1.791-4-4V136.202H123.456   z"/><path d="M466.75,386.474H144.643l-24.989,40.265c-0.757,1.22-2.064,1.891-3.402,1.891c-0.72,0-1.449-0.194-2.105-0.602   c-1.877-1.165-2.454-3.631-1.289-5.508l22.371-36.046H12.742C5.716,386.474,0,392.19,0,399.216v21.414h57.47c2.209,0,4,1.791,4,4   s-1.791,4-4,4H0v18.824c0,7.025,5.716,12.741,12.742,12.741H466.75c7.026,0,12.742-5.716,12.742-12.741V428.63H184.483   c-2.209,0-4-1.791-4-4s1.791-4,4-4h295.008v-21.414C479.491,392.19,473.775,386.474,466.75,386.474z"/><path d="M398.854,136.202l-8.307,242.272h56.961L435.95,136.202h-15.235v99.844c0,2.209-1.791,4-4,4s-4-1.791-4-4v-99.844H398.854z   "/><path d="M215.267,136.202l-9.03,242.272h16.807V225.246c0-2.209,1.791-4,4-4s4,1.791,4,4v153.229h10.217v-35.98   c0-2.209,1.791-4,4-4s4,1.791,4,4v35.98h13.095l-16.369-242.272H215.267z"/><path d="M481.535,0H289.774c-4.258,0-7.722,3.464-7.722,7.722v9.545h40.042c2.209,0,4,1.791,4,4s-1.791,4-4,4h-40.578   c-1.235,4.682-4.566,8.517-8.938,10.42l8.914,15.038c1.126,1.9,0.499,4.354-1.401,5.48c-0.64,0.379-1.342,0.56-2.036,0.56   c-1.366,0-2.698-0.7-3.445-1.961l-10.56-17.815h-25.187l17.786,30.005c1.126,1.9,0.499,4.354-1.401,5.48   c-0.64,0.379-1.342,0.56-2.036,0.56c-1.366,0-2.698-0.7-3.445-1.961l-20.203-34.084H70.49c-3.792,0-7.271,2.224-8.865,5.665   l-4.385,9.47c-2.898,6.258-9.228,10.302-16.125,10.302H23.803c-6.81,0-12.35,5.54-12.35,12.35v19.17h450.246V73.034h-81.034   c-2.209,0-4-1.791-4-4s1.791-4,4-4h81.034V32.916h-12.826c-2.209,0-4-1.791-4-4s1.791-4,4-4h32.662c3.564,0,6.465-2.9,6.465-6.465   V6.464C488,2.9,485.1,0,481.535,0z"/><path d="M472.039,101.946H7.453c-4.109,0-7.453,3.343-7.453,7.453v11.35c0,4.109,3.343,7.453,7.453,7.453h464.586   c4.109,0,7.453-3.343,7.453-7.453v-11.35C479.491,105.29,476.148,101.946,472.039,101.946z"/></g></svg>