<svg xmlns="http://www.w3.org/2000/svg" xmlns:xlink="http://www.w3.org/1999/xlink" version="1.1" x="0px" y="0px" viewBox="-200.0 -400.0 4400.0 5400.0" style="enable-background:new 0 0 4000 4000;" xml:space="preserve"><g><path d="M1301.208,3040.593v75.447c0,72.604,57.555,131.672,128.299,131.672h128.297v-207.119   c0-72.603-57.554-131.672-128.297-131.672C1358.763,2908.921,1301.208,2967.99,1301.208,3040.593z"/><path d="M754.297,483.833c-137.473,0-249.314,114.529-249.314,255.302v281.186c0,72.429,57.415,131.354,127.987,131.354h47.165   c70.573,0,127.987-58.925,127.987-131.354c0-53.9-23.964-92.584-71.225-114.969c-16.009-7.587-24.486-25.054-20.618-42.479   c3.882-17.489,19.004-29.772,36.771-29.868l250.563-1.357v-92.513C1003.613,598.363,891.769,483.833,754.297,483.833z"/><path d="M863.687,1020.319c0,34.253-9.101,66.376-24.965,94.008c-9.549,16.634,2.675,37.348,21.856,37.348h94.026   c27.068,0,49.009-21.942,49.009-49.009V887.215L810.22,888.26C839.845,915.851,863.687,957.553,863.687,1020.319z"/><path d="M3245.702,2908.921H1560.077c32.919,33.851,53.291,80.378,53.291,131.672v221.269c0,80.21-29.973,153.39-79.076,208.574   c-16.125,18.123-3.529,46.731,20.73,46.731h1690.679c137.47,0,249.315-114.53,249.315-255.305v-97.637   C3495.017,3023.45,3383.172,2908.921,3245.702,2908.921z"/><path d="M1429.507,3303.276c-101.382,0-183.862-83.992-183.862-187.236v-75.447c0-103.244,82.48-187.236,183.862-187.236   c13.843,0,27.315,1.617,40.292,4.584c4.382-2.891,9.625-4.584,15.269-4.584h1470.917l89.918-102.63   c29.886-34.115,46.346-78.152,46.346-123.997v-968.583c0-17.776-8.502-34.352-22.743-44.336l-83.49-58.551   c-27.746-19.456-44.612-50.237-46.273-84.448c-1.666-34.299,12.194-66.668,38.025-88.809l95.728-82.047   c11.917-10.216,18.753-25.246,18.753-41.24V739.135c0-140.773-111.844-255.302-249.316-255.302h-969.87   c-34.95,0-69.513,9.304-99.954,26.903l-46.466,26.872c-80.131,46.332-179.274,45.613-258.745-1.893l-39.307-23.491   c-31.071-18.573-66.504-28.391-102.473-28.391H993.262c-21.346,0-32.832,25.54-18.259,41.138   c52.12,55.785,84.175,131.215,84.175,214.164v1109.879c0,33.881,9.117,67.069,26.366,95.976l35.641,59.719   c20.673,34.638,22.072,77.476,3.7,113.389l-45.189,88.341c-13.423,26.241-20.518,55.774-20.518,85.405v970.017   c0,140.775,111.842,255.305,249.313,255.305c123.702,0,226.652-92.743,246.034-213.891H1429.507z M2037.934,2180.118h817.162   c15.344,0,27.781,12.437,27.781,27.782s-12.438,27.781-27.781,27.781h-817.162c-15.345,0-27.781-12.437-27.781-27.781   S2022.589,2180.118,2037.934,2180.118z M1685.894,1721.465c-15.344,0-27.781-12.437-27.781-27.782   c0-15.344,12.438-27.782,27.781-27.782h428.339c15.344,0,27.781,12.437,27.781,27.782c0,15.344-12.438,27.782-27.781,27.782   H1685.894z M2855.096,1207.247H2549.24c-15.344,0-27.781-12.438-27.781-27.782c0-15.344,12.438-27.782,27.781-27.782h305.856   c15.344,0,27.781,12.438,27.781,27.782C2882.878,1194.81,2870.44,1207.247,2855.096,1207.247z M1373.371,852.272h1481.725   c15.344,0,27.781,12.438,27.781,27.782c0,15.344-12.438,27.782-27.781,27.782H1373.371c-15.344,0-27.781-12.438-27.781-27.782   C1345.59,864.71,1358.027,852.272,1373.371,852.272z M1373.371,1151.683h1033.584c15.345,0,27.782,12.438,27.782,27.782   c0,15.344-12.438,27.782-27.782,27.782H1373.371c-15.344,0-27.781-12.438-27.781-27.782   C1345.59,1164.121,1358.027,1151.683,1373.371,1151.683z M1373.371,1665.902h165.925c15.344,0,27.781,12.437,27.781,27.782   c0,15.344-12.438,27.782-27.781,27.782h-165.925c-15.344,0-27.781-12.437-27.781-27.782   C1345.59,1678.339,1358.027,1665.902,1373.371,1665.902z M1373.371,2180.118h522.278c15.345,0,27.783,12.437,27.783,27.782   s-12.438,27.781-27.783,27.781h-522.278c-15.344,0-27.781-12.437-27.781-27.781S1358.027,2180.118,1373.371,2180.118z    M1373.371,2479.529h1481.725c15.344,0,27.781,12.438,27.781,27.781c0,15.345-12.438,27.782-27.781,27.782H1373.371   c-15.344,0-27.781-12.437-27.781-27.782C1345.59,2491.966,1358.027,2479.529,1373.371,2479.529z"/></g></svg>